<svg id="SvgjsSvg1001" width="288" height="288" xmlns="http://www.w3.org/2000/svg" version="1.1" xmlns:xlink="http://www.w3.org/1999/xlink" xmlns:svgjs="http://svgjs.com/svgjs"><defs id="SvgjsDefs1002"></defs><g id="SvgjsG1008" transform="matrix(1,0,0,1,0,0)"><svg xmlns="http://www.w3.org/2000/svg" enable-background="new 0 0 480 480" viewBox="0 0 480 480" width="288" height="288"><rect width="480" height="16" y="464" fill="#ffffff" class="color000 svgShape"></rect><path d="M32 448h80c4.418 0 8-3.582 8-8V296c0-4.418-3.582-8-8-8H32c-4.418 0-8 3.582-8 8v144C24 444.418 27.582 448 32 448zM40 304h64v128H40V304zM256 448h80c4.418 0 8-3.582 8-8V200c0-4.418-3.582-8-8-8h-80c-4.418 0-8 3.582-8 8v240C248 444.418 251.582 448 256 448zM264 208h64v224h-64V208zM144 448h80c4.418 0 8-3.582 8-8V104c0-4.418-3.582-8-8-8h-80c-4.418 0-8 3.582-8 8v336C136 444.418 139.582 448 144 448zM152 112h64v320h-64V112zM368 448h80c4.418 0 8-3.582 8-8V8c0-4.418-3.582-8-8-8h-80c-4.418 0-8 3.582-8 8v432C360 444.418 363.582 448 368 448zM376 16h64v416h-64V16z" fill="#ffffff" class="color000 svgShape"></path></svg></g></svg>